<svg width="152" height="120" viewBox="0 0 152 120" fill="none" xmlns="http://www.w3.org/2000/svg">
    <circle cx="76" cy="52" r="52" fill="#AEB8BC"/>
    <g filter="url(#filter0_dd_5711_386777)">
        <path d="M77.6 16C66.8273 16 57.2978 21.3233 51.4987 29.4829C49.605 29.0363 47.6301 28.8 45.6 28.8C31.4615 28.8 20 40.2615 20 54.4C20 68.5385 31.4615 80 45.6 80L109.6 80C121.971 80 132 69.9712 132 57.6C132 45.2288 121.971 35.2 109.6 35.2C108.721 35.2 107.854 35.2506 107.002 35.349C102.098 23.9677 90.7797 16 77.6 16Z" fill="#DDE1E4"/>
        <ellipse cx="45.6" cy="54.3998" rx="25.6" ry="25.6" fill="url(#paint0_linear_5711_386777)"/>
        <circle cx="77.6" cy="48" r="32" fill="url(#paint1_linear_5711_386777)"/>
        <ellipse cx="109.6" cy="57.6002" rx="22.4" ry="22.4" fill="url(#paint2_linear_5711_386777)"/>
    </g>
    <circle cx="21" cy="19" r="5" fill="#C5CCD0"/>
    <circle cx="18" cy="109" r="7" fill="#C5CCD0"/>
    <circle cx="145" cy="35" r="7" fill="#C5CCD0"/>
    <circle cx="134" cy="8" r="4" fill="#C5CCD0"/>
    <g filter="url(#filter1_b_5711_386777)">
        <path d="M52 86C52 72.7452 62.7452 62 76 62C89.2548 62 100 72.7452 100 86C100 99.2548 89.2548 110 76 110C62.7452 110 52 99.2548 52 86Z" fill="#344054" fill-opacity="0.4"/>
        <g clip-path="url(#clip0_5711_386777)">
            <path d="M80 90.0005L76 86.0005M76 86.0005L72 90.0005M76 86.0005V95.0005M84.39 92.3905C85.3653 91.8587 86.1358 91.0174 86.5799 89.9991C87.0239 88.9808 87.1162 87.8437 86.8422 86.7672C86.5682 85.6906 85.9435 84.736 85.0667 84.0539C84.1899 83.3719 83.1109 83.0012 82 83.0005H80.74C80.4373 81.8297 79.8732 80.7428 79.0899 79.8215C78.3067 78.9001 77.3248 78.1683 76.2181 77.6811C75.1114 77.1938 73.9085 76.9638 72.7001 77.0084C71.4917 77.0529 70.3091 77.3708 69.2412 77.9381C68.1733 78.5055 67.2479 79.3076 66.5346 80.2841C65.8213 81.2605 65.3387 82.386 65.123 83.5759C64.9073 84.7657 64.9641 85.989 65.2892 87.1537C65.6143 88.3185 66.1992 89.3943 67 90.3005" stroke="white" stroke-width="2" stroke-linecap="round" stroke-linejoin="round"/>
        </g>
    </g>
    <defs>
        <filter id="filter0_dd_5711_386777" x="0" y="16" width="152" height="104" filterUnits="userSpaceOnUse" color-interpolation-filters="sRGB">
            <feFlood flood-opacity="0" result="BackgroundImageFix"/>
            <feColorMatrix in="SourceAlpha" type="matrix" values="0 0 0 0 0 0 0 0 0 0 0 0 0 0 0 0 0 0 127 0" result="hardAlpha"/>
            <feMorphology radius="4" operator="erode" in="SourceAlpha" result="effect1_dropShadow_5711_386777"/>
            <feOffset dy="8"/>
            <feGaussianBlur stdDeviation="4"/>
            <feColorMatrix type="matrix" values="0 0 0 0 0.0627451 0 0 0 0 0.0941176 0 0 0 0 0.156863 0 0 0 0.03 0"/>
            <feBlend mode="normal" in2="BackgroundImageFix" result="effect1_dropShadow_5711_386777"/>
            <feColorMatrix in="SourceAlpha" type="matrix" values="0 0 0 0 0 0 0 0 0 0 0 0 0 0 0 0 0 0 127 0" result="hardAlpha"/>
            <feMorphology radius="4" operator="erode" in="SourceAlpha" result="effect2_dropShadow_5711_386777"/>
            <feOffset dy="20"/>
            <feGaussianBlur stdDeviation="12"/>
            <feColorMatrix type="matrix" values="0 0 0 0 0.0627451 0 0 0 0 0.0941176 0 0 0 0 0.156863 0 0 0 0.08 0"/>
            <feBlend mode="normal" in2="effect1_dropShadow_5711_386777" result="effect2_dropShadow_5711_386777"/>
            <feBlend mode="normal" in="SourceGraphic" in2="effect2_dropShadow_5711_386777" result="shape"/>
        </filter>
        <filter id="filter1_b_5711_386777" x="44" y="54" width="64" height="64" filterUnits="userSpaceOnUse" color-interpolation-filters="sRGB">
            <feFlood flood-opacity="0" result="BackgroundImageFix"/>
            <feGaussianBlur in="BackgroundImage" stdDeviation="4"/>
            <feComposite in2="SourceAlpha" operator="in" result="effect1_backgroundBlur_5711_386777"/>
            <feBlend mode="normal" in="SourceGraphic" in2="effect1_backgroundBlur_5711_386777" result="shape"/>
        </filter>
        <linearGradient id="paint0_linear_5711_386777" x1="25.9429" y1="37.4855" x2="71.2" y2="79.9998" gradientUnits="userSpaceOnUse">
            <stop stop-color="#D0D5DD"/>
            <stop offset="0.350715" stop-color="white" stop-opacity="0"/>
        </linearGradient>
        <linearGradient id="paint1_linear_5711_386777" x1="53.0286" y1="26.8571" x2="109.6" y2="80" gradientUnits="userSpaceOnUse">
            <stop stop-color="#D0D5DD"/>
            <stop offset="0.350715" stop-color="white" stop-opacity="0"/>
        </linearGradient>
        <linearGradient id="paint2_linear_5711_386777" x1="92.4" y1="42.8002" x2="132" y2="80.0002" gradientUnits="userSpaceOnUse">
            <stop stop-color="#D0D5DD"/>
            <stop offset="0.350715" stop-color="white" stop-opacity="0"/>
        </linearGradient>
        <clipPath id="clip0_5711_386777">
            <rect width="24" height="24" fill="white" transform="translate(64 74)"/>
        </clipPath>
    </defs>
</svg>
