<svg width="32" height="32" viewBox="0 0 32 32" fill="none" xmlns="http://www.w3.org/2000/svg">
    <path d="M7.99984 12.0001V2.66675H23.9998V12.0001M7.99984 24.0001H5.33317C4.62593 24.0001 3.94765 23.7191 3.44755 23.219C2.94746 22.7189 2.6665 22.0407 2.6665 21.3334V14.6667C2.6665 13.9595 2.94746 13.2812 3.44755 12.7811C3.94765 12.281 4.62593 12.0001 5.33317 12.0001H26.6665C27.3737 12.0001 28.052 12.281 28.5521 12.7811C29.0522 13.2812 29.3332 13.9595 29.3332 14.6667V21.3334C29.3332 22.0407 29.0522 22.7189 28.5521 23.219C28.052 23.7191 27.3737 24.0001 26.6665 24.0001H23.9998M7.99984 18.6667H23.9998V29.3334H7.99984V18.6667Z" stroke="#092733" stroke-width="2" stroke-linecap="round" stroke-linejoin="round"/>
</svg>
