<svg width="32" height="32" viewBox="0 0 32 32" fill="none" xmlns="http://www.w3.org/2000/svg">
    <path fill-rule="evenodd" clip-rule="evenodd" d="M5.4926 2C5.02594 1.99985 4.56707 2.11967 4.16006 2.34795C3.75305 2.57624 3.41155 2.90532 3.16836 3.3036C2.92517 3.70189 2.78846 4.15601 2.77134 4.62236C2.75422 5.0887 2.85727 5.55162 3.0706 5.96667L2.16838 16.2924C2.16674 16.309 2.1657 16.3256 2.16527 16.3422L2.10149 18.1467C2.0679 19.0972 2.39278 20.0256 3.0117 20.7479C3.63061 21.4701 4.49835 21.9333 5.44282 22.0457L5.58282 22.0628C6.31989 22.1506 7.06654 22.0202 7.73019 21.6877C8.39383 21.3552 8.94528 20.8352 9.31615 20.1922L11.0234 17.232C11.4084 16.5654 10.8072 15.7628 10.0589 15.9448L8.75149 16.2621L6.76971 16.1338L5.9406 16.035L7.2566 7.30678C8.66826 7.74389 10.062 8.20745 11.2645 8.86389C12.4273 9.49933 13.3552 10.2864 13.9222 11.3512C12.8916 12.7899 12.2931 14.4927 12.197 16.2598L11.9552 20.6231C11.9492 20.7287 11.9649 20.8344 12.0012 20.9338C12.0376 21.0331 12.0938 21.124 12.1664 21.2009C12.2391 21.2778 12.3267 21.339 12.4238 21.3809C12.5209 21.4228 12.6256 21.4444 12.7314 21.4444H29.5703C29.624 21.4444 29.6771 21.4332 29.7264 21.4116C29.7756 21.39 29.8197 21.3585 29.8561 21.3189C29.8925 21.2794 29.9203 21.2327 29.9378 21.1819C29.9553 21.1311 29.962 21.0772 29.9576 21.0237L29.4987 15.5139C29.4743 15.2223 29.3413 14.9505 29.1259 14.7524C28.9105 14.5543 28.6285 14.4444 28.3359 14.4444H25.3602C25.3507 14.4445 25.3416 14.4412 25.3344 14.435C25.3273 14.4289 25.3226 14.4203 25.3213 14.411L24.5404 8.78611C24.4887 8.41417 24.3043 8.07346 24.0211 7.82687C23.7379 7.58028 23.3751 7.44445 22.9996 7.44445H21.5164C20.1478 7.44283 18.7958 7.74319 17.5567 8.32411C15.2903 4.89567 11.3252 3.92967 7.7186 3.155C7.46751 2.79795 7.13415 2.50659 6.7467 2.30555C6.35925 2.10452 5.9291 1.99971 5.4926 2ZM4.32593 4.72222C4.32593 4.4128 4.44885 4.11606 4.66764 3.89726C4.88643 3.67847 5.18318 3.55556 5.4926 3.55556C5.80202 3.55556 6.09876 3.67847 6.31756 3.89726C6.53635 4.11606 6.65927 4.4128 6.65927 4.72222C6.65927 5.03164 6.53635 5.32839 6.31756 5.54718C6.09876 5.76597 5.80202 5.88889 5.4926 5.88889C5.18318 5.88889 4.88643 5.76597 4.66764 5.54718C4.44885 5.32839 4.32593 5.03164 4.32593 4.72222ZM5.8636 7.41956C5.34065 7.48986 4.80851 7.40832 4.3306 7.18467L3.5256 16.3912L3.46182 18.1949C3.44039 18.8042 3.6487 19.3992 4.04546 19.8621C4.44221 20.325 4.99844 20.6219 5.60382 20.6939L5.74382 20.711C6.21626 20.7674 6.69485 20.6839 7.12027 20.4708C7.54569 20.2578 7.89923 19.9245 8.13704 19.5124L9.27727 17.5353L9.00038 17.6022C8.91482 17.6232 8.82615 17.631 8.73749 17.6256L6.64527 17.4894L5.28182 17.3269C5.16539 17.3131 5.05292 17.276 4.95109 17.2179C4.84926 17.1598 4.76015 17.0818 4.68905 16.9886C4.61795 16.8954 4.56632 16.7888 4.53721 16.6752C4.5081 16.5616 4.50211 16.4434 4.5196 16.3274L5.8636 7.41956ZM12.0104 7.49889C10.7403 6.80511 9.30293 6.31589 7.95038 5.89356C8.10126 5.577 8.19382 5.227 8.21171 4.85756C11.5204 5.60578 14.4619 6.536 16.2057 9.10189C15.7731 9.40163 15.3664 9.73726 14.99 10.1052C14.2379 8.96267 13.1732 8.13356 12.0104 7.49889ZM13.7503 16.3461C13.8606 14.3611 14.7269 12.4936 16.1712 11.1274C17.6156 9.76118 19.5283 8.99992 21.5164 9H22.9996L23.7805 14.6249C23.8334 15.006 24.0224 15.3552 24.3126 15.6079C24.6028 15.8606 24.9746 15.9999 25.3594 16H27.9782L28.3025 19.8889H13.5535L13.7503 16.3461Z" fill="#092733"/>
    <path fill-rule="evenodd" clip-rule="evenodd" d="M14.0483 23C13.5887 23 13.1336 23.0905 12.7089 23.2664C12.2843 23.4423 11.8985 23.7001 11.5735 24.0251C11.2485 24.3501 10.9907 24.736 10.8148 25.1606C10.6389 25.5852 10.5483 26.0404 10.5483 26.5C10.5483 26.9596 10.6389 27.4148 10.8148 27.8394C10.9907 28.264 11.2485 28.6499 11.5735 28.9749C11.8985 29.2999 12.2843 29.5577 12.7089 29.7336C13.1336 29.9095 13.5887 30 14.0483 30H26.4928C26.9524 30 27.4075 29.9095 27.8322 29.7336C28.2568 29.5577 28.6427 29.2999 28.9677 28.9749C29.2927 28.6499 29.5505 28.264 29.7264 27.8394C29.9023 27.4148 29.9928 26.9596 29.9928 26.5C29.9928 26.0404 29.9023 25.5852 29.7264 25.1606C29.5505 24.736 29.2927 24.3501 28.9677 24.0251C28.6427 23.7001 28.2568 23.4423 27.8322 23.2664C27.4075 23.0905 26.9524 23 26.4928 23H14.0483ZM26.4928 24.5556L20 25.1606L14.0483 24.5556C13.5326 24.5556 13.0381 24.7604 12.6734 25.1251C12.3088 25.4897 12.1039 25.9843 12.1039 26.5C12.1039 27.0157 12.3088 27.5103 12.6734 27.8749C13.0381 28.2396 13.5326 28.4444 14.0483 28.4444H26.4928C27.0085 28.4444 27.5031 28.2396 27.8677 27.8749C28.2324 27.5103 28.4372 27.0157 28.4372 26.5C28.4372 25.9843 28.2324 25.4897 27.8677 25.1251C27.5031 24.7604 27.0085 24.5556 26.4928 24.5556Z" fill="#092733"/>
</svg>
