<?xml version="1.0" encoding="UTF-8" standalone="no" ?>
<!DOCTYPE svg PUBLIC "-//W3C//DTD SVG 1.1//EN" "http://www.w3.org/Graphics/SVG/1.1/DTD/svg11.dtd">
<svg xmlns="http://www.w3.org/2000/svg" xmlns:xlink="http://www.w3.org/1999/xlink" version="1.1" width="500" height="500" viewBox="0 0 500 500" xml:space="preserve">
<desc>Created with Fabric.js 4.6.0</desc>
<defs>
</defs>
<g transform="matrix(1 0 0 1 250 250)" id="LD232TOIV9BOSyyRafiMv"  >
<path style="stroke: none; stroke-width: 1; stroke-dasharray: none; stroke-linecap: butt; stroke-dashoffset: 0; stroke-linejoin: miter; stroke-miterlimit: 4; fill: rgb(255,255,255); fill-rule: nonzero; opacity: 1;" vector-effect="non-scaling-stroke"  transform=" translate(-200, -200)" d="M 382.688 182.686 L 59.116 182.686 L 136.325 105.47200000000001 C 143.089 98.712 143.089 87.74600000000001 136.325 80.98700000000001 C 129.56099999999998 74.22300000000001 118.59499999999998 74.22300000000001 111.84099999999998 80.98700000000001 L 5.073 187.757 C -1.6909999999999998 194.517 -1.6909999999999998 205.484 5.073 212.24200000000002 L 111.84100000000001 319.01700000000005 C 115.22200000000001 322.40000000000003 119.653 324.08900000000006 124.08300000000001 324.08900000000006 C 128.513 324.08900000000006 132.94400000000002 322.40000000000003 136.32500000000002 319.01700000000005 C 143.08900000000003 312.25700000000006 143.08900000000003 301.29100000000005 136.32500000000002 294.5330000000001 L 59.116000000000014 217.31500000000005 L 382.688 217.31500000000005 C 392.25 217.31500000000005 400.00399999999996 209.56200000000007 400.00399999999996 200.00000000000006 C 400.004 190.438 392.251 182.686 382.688 182.686 z" stroke-linecap="round" />
</g>
</svg>