<svg width="214" height="166" viewBox="0 0 214 166" fill="none" xmlns="http://www.w3.org/2000/svg">
<ellipse cx="107" cy="73.1525" rx="73.2105" ry="73.1525" fill="#CEE4EE"/>
<g filter="url(#filter0_dd_5444_379880)">
<path fill-rule="evenodd" clip-rule="evenodd" d="M109.253 22.5085C94.0857 22.5085 80.6692 29.9972 72.5046 41.476C69.8385 40.8478 67.0581 40.5153 64.1999 40.5153C44.2944 40.5153 28.1578 56.6392 28.1578 76.5289C28.1578 96.4186 44.2944 112.542 64.1999 112.542L64.2335 112.542H154.305C171.723 112.542 185.842 98.4341 185.842 81.0306C185.842 63.627 171.723 49.5187 154.305 49.5187C153.068 49.5187 151.848 49.5899 150.648 49.7284C143.744 33.7173 127.808 22.5085 109.253 22.5085Z" fill="#EAF0F4"/>
<ellipse cx="64.1999" cy="76.5289" rx="36.0421" ry="36.0136" fill="url(#paint0_linear_5444_379880)"/>
<ellipse cx="109.253" cy="67.5255" rx="45.0526" ry="45.0169" fill="url(#paint1_linear_5444_379880)"/>
<ellipse cx="154.305" cy="81.0307" rx="31.5368" ry="31.5119" fill="url(#paint2_linear_5444_379880)"/>
</g>
<ellipse cx="29.5658" cy="26.7287" rx="7.03947" ry="7.0339" fill="#E1EDF3"/>
<ellipse cx="25.3421" cy="153.339" rx="9.85526" ry="9.84746" fill="#E1EDF3"/>
<ellipse cx="204.145" cy="49.2374" rx="9.85526" ry="9.84746" fill="#E1EDF3"/>
<ellipse cx="188.658" cy="11.2543" rx="5.63158" ry="5.62712" fill="#E1EDF3"/>
<defs>
<filter id="filter0_dd_5444_379880" x="8.15784" y="22.5085" width="197.684" height="130.034" filterUnits="userSpaceOnUse" color-interpolation-filters="sRGB">
<feFlood flood-opacity="0" result="BackgroundImageFix"/>
<feColorMatrix in="SourceAlpha" type="matrix" values="0 0 0 0 0 0 0 0 0 0 0 0 0 0 0 0 0 0 127 0" result="hardAlpha"/>
<feMorphology radius="4" operator="erode" in="SourceAlpha" result="effect1_dropShadow_5444_379880"/>
<feOffset dy="8"/>
<feGaussianBlur stdDeviation="4"/>
<feColorMatrix type="matrix" values="0 0 0 0 0.0627451 0 0 0 0 0.0941176 0 0 0 0 0.156863 0 0 0 0.03 0"/>
<feBlend mode="normal" in2="BackgroundImageFix" result="effect1_dropShadow_5444_379880"/>
<feColorMatrix in="SourceAlpha" type="matrix" values="0 0 0 0 0 0 0 0 0 0 0 0 0 0 0 0 0 0 127 0" result="hardAlpha"/>
<feMorphology radius="4" operator="erode" in="SourceAlpha" result="effect2_dropShadow_5444_379880"/>
<feOffset dy="20"/>
<feGaussianBlur stdDeviation="12"/>
<feColorMatrix type="matrix" values="0 0 0 0 0.0627451 0 0 0 0 0.0941176 0 0 0 0 0.156863 0 0 0 0.08 0"/>
<feBlend mode="normal" in2="effect1_dropShadow_5444_379880" result="effect2_dropShadow_5444_379880"/>
<feBlend mode="normal" in="SourceGraphic" in2="effect2_dropShadow_5444_379880" result="shape"/>
</filter>
<linearGradient id="paint0_linear_5444_379880" x1="36.5248" y1="52.7343" x2="100.195" y2="112.593" gradientUnits="userSpaceOnUse">
<stop stop-color="#E9D7FE"/>
<stop offset="0.350715" stop-color="white" stop-opacity="0"/>
</linearGradient>
<linearGradient id="paint1_linear_5444_379880" x1="74.6586" y1="37.7822" x2="154.246" y2="112.605" gradientUnits="userSpaceOnUse">
<stop stop-color="#E9D7FE"/>
<stop offset="0.350715" stop-color="white" stop-opacity="0"/>
</linearGradient>
<linearGradient id="paint2_linear_5444_379880" x1="130.089" y1="60.2103" x2="185.801" y2="112.587" gradientUnits="userSpaceOnUse">
<stop stop-color="#E9D7FE"/>
<stop offset="0.350715" stop-color="white" stop-opacity="0"/>
</linearGradient>
</defs>
</svg>
