<svg width="150" height="150" viewBox="0 0 20 20" fill="#677982" xmlns="http://www.w3.org/2000/svg">
    <path d="M3.92 16.448L3.904 14.256C3.54133 14.2347 3.15733 14.16 2.752 14.032C2.34667 13.904 1.99467 13.7493 1.696 13.568L1.776 14.208H0.912V10.832H1.472C1.52533 11.8133 1.81333 12.528 2.336 12.976C2.86933 13.4133 3.55733 13.632 4.4 13.632C5.02933 13.632 5.54133 13.4453 5.936 13.072C6.33067 12.6987 6.528 12.2187 6.528 11.632C6.528 11.152 6.39467 10.752 6.128 10.432C5.872 10.1013 5.536 9.808 5.12 9.552C4.704 9.296 4.26133 9.05067 3.792 8.816C3.30133 8.56 2.82667 8.28267 2.368 7.984C1.90933 7.68533 1.53067 7.328 1.232 6.912C0.944 6.48533 0.8 5.95733 0.8 5.328C0.8 5.072 0.853333 4.78933 0.96 4.48C1.06667 4.17067 1.23733 3.872 1.472 3.584C1.70667 3.28533 2.016 3.04 2.4 2.848C2.79467 2.656 3.26933 2.55467 3.824 2.544V0.671999H4.688L4.672 2.544C4.98133 2.576 5.28 2.64533 5.568 2.752C5.86667 2.848 6.16 3.00267 6.448 3.216L6.384 2.544H7.184V6.032H6.592C6.56 5.52 6.464 5.04533 6.304 4.608C6.144 4.17067 5.88267 3.81867 5.52 3.552C5.168 3.28533 4.67733 3.152 4.048 3.152C3.6 3.152 3.232 3.24267 2.944 3.424C2.656 3.60533 2.44267 3.84 2.304 4.128C2.16533 4.416 2.096 4.72 2.096 5.04C2.096 5.44533 2.208 5.79733 2.432 6.096C2.656 6.39467 2.94933 6.66133 3.312 6.896C3.67467 7.13067 4.064 7.36 4.48 7.584C4.88533 7.79733 5.28533 8.016 5.68 8.24C6.07467 8.464 6.43733 8.71467 6.768 8.992C7.10933 9.26933 7.376 9.59467 7.568 9.968C7.77067 10.3413 7.872 10.7787 7.872 11.28C7.872 11.7707 7.75467 12.2347 7.52 12.672C7.296 13.1093 6.95467 13.472 6.496 13.76C6.03733 14.0373 5.456 14.2027 4.752 14.256V16.448H3.92Z" fill="#677982"/>
</svg>
