<svg width="22" height="18" viewBox="0 0 22 18" fill="none" xmlns="http://www.w3.org/2000/svg">
<path d="M8.86784 1.5V0.5C8.31556 0.5 7.86784 0.947715 7.86784 1.5L8.86784 1.5ZM12.995 1.5H13.995C13.995 0.947715 13.5473 0.5 12.995 0.5V1.5ZM10.9377 0.5H8.86784V2.5H10.9377V0.5ZM7.86784 1.5V3.04613H9.86784V1.5H7.86784ZM7.86784 3.04613V11.4002H9.86784V3.04613H7.86784ZM3.28067 13.1855C3.16261 11.8031 3.32792 9.66247 4.18194 7.79416C5.017 5.96734 6.4822 4.43883 9.02518 4.03368L8.7105 2.05859C5.36819 2.59109 3.41278 4.66608 2.36297 6.96269C1.33212 9.21783 1.14829 11.7206 1.28793 13.3557L3.28067 13.1855ZM10.9252 2.5H12.995V0.5H10.9252V2.5ZM11.995 1.5V3.04613H13.995V1.5H11.995ZM11.995 3.04613V11.4002H13.995V3.04613H11.995ZM20.5749 13.3557C20.7146 11.7206 20.5307 9.21783 19.4999 6.96269C18.4501 4.66608 16.4947 2.59109 13.1523 2.05859L12.8377 4.03368C15.3806 4.43883 16.8458 5.96734 17.6809 7.79416C18.5349 9.66247 18.7002 11.8031 18.5822 13.1855L20.5749 13.3557ZM20 14.4615C20 14.2264 20.1667 14.294 19.7091 14.5617C19.3214 14.7886 18.6938 15.0272 17.8308 15.2408C16.1204 15.6641 13.7049 15.9364 11 15.9364V17.9364C13.818 17.9364 16.4024 17.6547 18.3113 17.1822C19.258 16.9479 20.0949 16.6532 20.7192 16.2879C21.2737 15.9635 22 15.38 22 14.4615H20ZM11 15.9364C8.29511 15.9364 5.87959 15.6641 4.16918 15.2408C3.30623 15.0272 2.67862 14.7886 2.29089 14.5617C1.83332 14.294 2 14.2264 2 14.4615H0C0 15.38 0.726325 15.9635 1.28081 16.2879C1.90513 16.6532 2.74199 16.9479 3.68869 17.1822C5.59756 17.6547 8.18204 17.9364 11 17.9364V15.9364ZM2 14.4615C2 14.7782 1.7091 14.7761 2.07117 14.6437C2.4018 14.5229 2.96809 14.4274 3.81169 14.3696C5.48306 14.2551 7.82495 14.3075 10.6288 14.3075V12.3075C7.90985 12.3075 5.43733 12.2535 3.67499 12.3743C2.80175 12.4341 1.99636 12.5416 1.38453 12.7653C0.804149 12.9774 0 13.4613 0 14.4615H2ZM10.6288 14.3075C13.4284 14.3075 15.9624 14.2549 17.8238 14.37C18.7616 14.428 19.4363 14.5247 19.8527 14.6573C20.0626 14.7242 20.1271 14.7761 20.1237 14.7732C20.0927 14.7462 20 14.6327 20 14.4615H22C22 13.9485 21.7557 13.5427 21.4381 13.2657C21.1479 13.0127 20.7905 12.8571 20.4596 12.7517C19.7944 12.5398 18.9118 12.4335 17.9472 12.3738C16.0037 12.2537 13.3521 12.3075 10.6288 12.3075V14.3075Z" fill="#092733"/>
</svg>
