<svg width="24" height="25" viewBox="0 0 24 25" fill="none" xmlns="http://www.w3.org/2000/svg">
<path d="M21 8.5V21.5H3V8.5M5.5 15.5H18.5M1 3.5H23V8.5H1V3.5Z" stroke="#092733" stroke-width="2" stroke-linecap="round" stroke-linejoin="round"/>
<path fill-rule="evenodd" clip-rule="evenodd" d="M0.5 7.5C0.5 7.94546 0.594162 8.62157 0.920095 9.22515C1.26942 9.87206 1.93764 10.5 3 10.5C3.792 10.5 4.36494 10.151 4.75 9.70532C5.13507 10.151 5.708 10.5 6.5 10.5C7.292 10.5 7.86494 10.151 8.25 9.70532C8.63507 10.151 9.208 10.5 10 10.5C10.792 10.5 11.3649 10.151 11.75 9.70532C12.1351 10.151 12.708 10.5 13.5 10.5C14.292 10.5 14.8649 10.151 15.25 9.70532C15.6351 10.151 16.208 10.5 17 10.5C17.792 10.5 18.3649 10.151 18.75 9.70532C19.1351 10.151 19.708 10.5 20.5 10.5C21.5624 10.5 22.2306 9.87206 22.5799 9.22515C22.9058 8.62157 23 7.94546 23 7.5H21C21 7.72121 20.9442 8.0451 20.8201 8.27485C20.7632 8.38015 20.71 8.43254 20.6739 8.45734C20.6478 8.47531 20.6025 8.5 20.5 8.5C20.3975 8.5 20.3522 8.47531 20.3261 8.45734C20.29 8.43254 20.2368 8.38015 20.1799 8.27485C20.0558 8.0451 20 7.72121 20 7.5H19.5H18H17.5C17.5 7.72121 17.4442 8.0451 17.3201 8.27485C17.2632 8.38015 17.21 8.43254 17.1739 8.45734C17.1478 8.47531 17.1025 8.5 17 8.5C16.8975 8.5 16.8522 8.47531 16.8261 8.45734C16.79 8.43254 16.7368 8.38015 16.6799 8.27485C16.5558 8.0451 16.5 7.72121 16.5 7.5H16H14.5H14C14 7.72121 13.9442 8.0451 13.8201 8.27485C13.7632 8.38015 13.71 8.43254 13.6739 8.45734C13.6478 8.47531 13.6025 8.5 13.5 8.5C13.3975 8.5 13.3522 8.47531 13.3261 8.45734C13.29 8.43254 13.2368 8.38015 13.1799 8.27485C13.0558 8.0451 13 7.72121 13 7.5H12.5H11H10.5C10.5 7.72121 10.4442 8.0451 10.3201 8.27485C10.2632 8.38015 10.21 8.43254 10.1739 8.45734C10.1478 8.47531 10.1025 8.5 10 8.5C9.89746 8.5 9.85222 8.47531 9.82609 8.45734C9.79004 8.43254 9.73677 8.38015 9.6799 8.27485C9.55584 8.0451 9.5 7.72121 9.5 7.5H9H7.5H7C7 7.72121 6.94416 8.0451 6.82009 8.27485C6.76323 8.38015 6.70996 8.43254 6.67391 8.45734C6.64778 8.47531 6.60255 8.5 6.5 8.5C6.39745 8.5 6.35222 8.47531 6.32609 8.45734C6.29004 8.43254 6.23677 8.38015 6.17991 8.27485C6.05584 8.0451 6 7.72121 6 7.5H5.5H4H3.5C3.5 7.72121 3.44416 8.0451 3.32009 8.27485C3.26323 8.38015 3.20995 8.43254 3.17391 8.45734C3.14778 8.47531 3.10255 8.5 3 8.5C2.89745 8.5 2.85222 8.47531 2.82609 8.45734C2.79005 8.43254 2.73677 8.38015 2.67991 8.27485C2.55584 8.0451 2.5 7.72121 2.5 7.5H0.5Z" fill="#092733"/>
</svg>
