<svg width="681" height="586" viewBox="0 0 681 586" fill="none" xmlns="http://www.w3.org/2000/svg">
<g clip-path="url(#clip0_5294_379006)">
<path d="M51.2864 537.028C55.2096 538.407 59.4218 538.753 63.5172 538.031C67.6127 537.31 71.4533 535.546 74.6691 532.909C82.8589 526.035 85.4271 514.713 87.5158 504.227L93.6956 473.211L80.7579 482.119C71.4532 488.526 61.9396 495.138 55.4977 504.417C49.0559 513.696 46.2455 526.364 51.4198 536.405" fill="#E6E6E6"/>
<path d="M53.2842 576.739C51.6558 564.875 49.9804 552.858 51.1254 540.867C52.14 530.218 55.3891 519.818 62.0037 511.288C65.5147 506.769 69.7869 502.898 74.6283 499.847C75.8905 499.051 77.0525 501.051 75.7957 501.844C67.4185 507.138 60.9389 514.956 57.2912 524.17C53.2626 534.416 52.6158 545.586 53.3097 556.47C53.7291 563.052 54.6204 569.591 55.5156 576.123C55.5862 576.418 55.5421 576.729 55.3921 576.993C55.2421 577.257 54.9974 577.455 54.7076 577.545C54.4118 577.625 54.0966 577.585 53.8303 577.433C53.564 577.282 53.3681 577.032 53.285 576.737L53.2842 576.739Z" fill="#F2F2F2"/>
<path d="M65.0054 557.702C66.6877 560.26 69.0004 562.342 71.7207 563.746C74.4411 565.15 77.4773 565.831 80.5368 565.721C88.4012 565.348 94.9548 559.861 100.854 554.651L118.306 539.242L106.756 538.689C98.4499 538.291 89.9293 537.918 82.0179 540.482C74.1065 543.047 66.8103 549.209 65.3639 557.398" fill="#E6E6E6"/>
<path d="M48.6814 583.558C56.5212 569.687 65.6138 554.27 81.8622 549.343C86.3797 547.978 91.1165 547.489 95.8177 547.902C97.2996 548.03 96.9294 550.314 95.4507 550.186C87.5702 549.532 79.705 551.613 73.179 556.079C66.8991 560.353 62.0093 566.296 57.8712 572.598C55.3361 576.458 53.0655 580.482 50.7948 584.501C50.0692 585.785 47.9474 584.858 48.6814 583.558Z" fill="#F2F2F2"/>
<path d="M675.977 412.317H243.762C242.43 412.315 241.153 411.785 240.212 410.843C239.27 409.902 238.74 408.625 238.738 407.293V5.90756C238.74 4.57576 239.27 3.299 240.212 2.35727C241.153 1.41554 242.43 0.885713 243.762 0.883972H675.977C677.308 0.885713 678.585 1.41554 679.527 2.35727C680.469 3.299 680.999 4.57576 681 5.90756V407.292C680.999 408.624 680.469 409.901 679.527 410.843C678.585 411.784 677.309 412.314 675.977 412.316V412.317Z" fill="white"/>
<path d="M675.977 412.317H243.762C242.43 412.315 241.153 411.785 240.212 410.843C239.27 409.902 238.74 408.625 238.738 407.293V5.90756C238.74 4.57576 239.27 3.299 240.212 2.35727C241.153 1.41554 242.43 0.885713 243.762 0.883972H675.977C677.308 0.885713 678.585 1.41554 679.527 2.35727C680.469 3.299 680.999 4.57576 681 5.90756V407.292C680.999 408.624 680.469 409.901 679.527 410.843C678.585 411.784 677.309 412.314 675.977 412.316V412.317ZM243.762 2.88945C242.964 2.89118 242.199 3.20903 241.634 3.77342C241.07 4.33781 240.752 5.1028 240.75 5.90097V407.292C240.752 408.09 241.07 408.855 241.634 409.42C242.199 409.984 242.964 410.302 243.762 410.304H675.977C676.775 410.302 677.54 409.984 678.104 409.42C678.669 408.855 678.987 408.09 678.988 407.292V5.90756C678.986 5.10939 678.669 4.34441 678.104 3.78001C677.54 3.21562 676.775 2.89777 675.977 2.89604L243.762 2.88945Z" fill="#CACACA"/>
<path d="M447.991 105.185C447.088 105.187 446.222 105.547 445.583 106.186C444.945 106.826 444.586 107.692 444.586 108.596C444.586 109.499 444.945 110.366 445.583 111.005C446.222 111.645 447.088 112.005 447.991 112.006H635.134C636.037 112.005 636.903 111.645 637.542 111.005C638.18 110.366 638.539 109.499 638.539 108.596C638.539 107.692 638.18 106.826 637.542 106.186C636.903 105.547 636.037 105.187 635.134 105.185H447.991Z" fill="#E4E4E4"/>
<path d="M447.991 125.65C447.088 125.653 446.223 126.013 445.585 126.652C444.947 127.292 444.589 128.158 444.589 129.061C444.589 129.964 444.947 130.83 445.585 131.47C446.223 132.109 447.088 132.469 447.991 132.471H543.531C544.434 132.469 545.3 132.109 545.938 131.47C546.575 130.83 546.934 129.964 546.934 129.061C546.934 128.158 546.575 127.292 545.938 126.652C545.3 126.013 544.434 125.653 543.531 125.65H447.991Z" fill="#E4E4E4"/>
<path d="M284.422 235.705C283.519 235.707 282.654 236.067 282.016 236.706C281.378 237.346 281.02 238.212 281.02 239.115C281.02 240.018 281.378 240.884 282.016 241.524C282.654 242.163 283.519 242.523 284.422 242.526H635.316C636.219 242.523 637.084 242.163 637.722 241.524C638.36 240.884 638.718 240.018 638.718 239.115C638.718 238.212 638.36 237.346 637.722 236.706C637.084 236.067 636.219 235.707 635.316 235.705H284.422Z" fill="#E4E4E4"/>
<path d="M284.422 256.17C283.519 256.172 282.654 256.532 282.016 257.172C281.378 257.811 281.02 258.677 281.02 259.58C281.02 260.483 281.378 261.35 282.016 261.989C282.654 262.628 283.519 262.989 284.422 262.991H543.713C544.616 262.989 545.482 262.628 546.12 261.989C546.757 261.35 547.116 260.483 547.116 259.58C547.116 258.677 546.757 257.811 546.12 257.172C545.482 256.532 544.616 256.172 543.713 256.17H284.422Z" fill="#E4E4E4"/>
<path d="M284.422 276.172C283.519 276.174 282.654 276.534 282.016 277.174C281.378 277.813 281.02 278.679 281.02 279.582C281.02 280.485 281.378 281.352 282.016 281.991C282.654 282.63 283.519 282.991 284.422 282.993H635.316C636.219 282.991 637.084 282.63 637.722 281.991C638.36 281.352 638.718 280.485 638.718 279.582C638.718 278.679 638.36 277.813 637.722 277.174C637.084 276.534 636.219 276.174 635.316 276.172H284.422Z" fill="#E4E4E4"/>
<path d="M284.422 296.637C283.519 296.639 282.654 296.999 282.016 297.639C281.378 298.278 281.02 299.144 281.02 300.047C281.02 300.95 281.378 301.817 282.016 302.456C282.654 303.095 283.519 303.456 284.422 303.458H543.713C544.616 303.456 545.482 303.095 546.12 302.456C546.757 301.817 547.116 300.95 547.116 300.047C547.116 299.144 546.757 298.278 546.12 297.639C545.482 296.999 544.616 296.639 543.713 296.637H284.422Z" fill="#E4E4E4"/>
<path d="M284.422 317.172C283.519 317.174 282.654 317.534 282.016 318.174C281.378 318.813 281.02 319.679 281.02 320.582C281.02 321.485 281.378 322.352 282.016 322.991C282.654 323.63 283.519 323.991 284.422 323.993H635.316C636.219 323.991 637.084 323.63 637.722 322.991C638.36 322.352 638.718 321.485 638.718 320.582C638.718 319.679 638.36 318.813 637.722 318.174C637.084 317.534 636.219 317.174 635.316 317.172H284.422Z" fill="#E4E4E4"/>
<path d="M284.422 337.637C283.519 337.639 282.654 337.999 282.016 338.639C281.378 339.278 281.02 340.144 281.02 341.047C281.02 341.95 281.378 342.817 282.016 343.456C282.654 344.095 283.519 344.456 284.422 344.458H543.713C544.616 344.456 545.482 344.095 546.12 343.456C546.757 342.817 547.116 341.95 547.116 341.047C547.116 340.144 546.757 339.278 546.12 338.639C545.482 337.999 544.616 337.639 543.713 337.637H284.422Z" fill="#E4E4E4"/>
<path d="M340.001 167.828C330.309 167.828 320.835 164.955 312.777 159.57C304.719 154.186 298.439 146.534 294.73 137.58C291.021 128.626 290.051 118.774 291.941 109.269C293.832 99.7639 298.499 91.0329 305.352 84.1801C312.204 77.3273 320.935 72.6604 330.44 70.7697C339.946 68.879 349.798 69.8493 358.751 73.558C367.705 77.2667 375.358 83.5471 380.742 91.6052C386.126 99.6632 389 109.137 389 118.828C388.985 131.819 383.818 144.274 374.632 153.46C365.446 162.646 352.992 167.813 340.001 167.828Z" fill="#12B76A"/>
<path d="M191.259 353.1C191.174 351.312 190.699 349.564 189.865 347.979C189.032 346.394 187.861 345.012 186.435 343.928C185.01 342.845 183.364 342.087 181.614 341.709C179.864 341.331 178.052 341.341 176.306 341.738L160.11 318.913L143.838 325.372L167.164 357.285C168.026 360.173 169.918 362.645 172.481 364.232C175.044 365.819 178.1 366.411 181.07 365.895C184.04 365.379 186.718 363.792 188.596 361.434C190.474 359.076 191.421 356.111 191.259 353.1H191.259Z" fill="#A0616A"/>
<path d="M159.693 351.409L110.685 287.831L129.048 230.12C130.393 215.611 139.473 211.559 139.859 211.394L140.448 211.141L156.427 253.753L144.695 285.039L173.492 333.471L159.693 351.409Z" fill="#3F3D56"/>
<path d="M329.889 155.42C328.112 155.643 326.406 156.252 324.891 157.206C323.375 158.159 322.087 159.433 321.117 160.939C320.147 162.444 319.519 164.143 319.277 165.917C319.035 167.691 319.185 169.497 319.717 171.207L298.212 189.119L305.91 204.843L335.924 179.12C338.737 178.037 341.055 175.96 342.439 173.282C343.823 170.604 344.177 167.511 343.433 164.589C342.689 161.668 340.899 159.121 338.403 157.431C335.907 155.741 332.877 155.026 329.889 155.42Z" fill="#A0616A"/>
<path d="M330.643 187.022L271.045 240.799L212.087 226.953C197.517 226.734 192.775 217.995 192.58 217.622L192.283 217.054L233.532 197.828L265.631 207.107L311.692 174.652L330.643 187.022Z" fill="#3F3D56"/>
<path d="M227.41 569.321L243.423 569.32L251.04 507.556L227.407 507.557L227.41 569.321Z" fill="#A0616A"/>
<path d="M274.305 584.188L223.979 584.19L223.978 564.746L260.185 564.744C263.929 564.744 267.521 566.231 270.169 568.879C272.817 571.527 274.304 575.118 274.304 578.863L274.305 584.188L274.305 584.188Z" fill="#2F2E41"/>
<path d="M163.409 569.321L179.422 569.32L187.04 507.556L163.407 507.557L163.409 569.321Z" fill="#A0616A"/>
<path d="M210.304 584.188L159.978 584.19L159.977 564.746L196.184 564.744C198.038 564.744 199.874 565.109 201.587 565.819C203.3 566.528 204.857 567.568 206.168 568.879C207.479 570.19 208.519 571.747 209.229 573.46C209.939 575.173 210.304 577.009 210.304 578.863L210.304 584.188Z" fill="#2F2E41"/>
<path d="M157.714 343.875L159.02 435.304L160.327 555.468L189.061 552.856L203.429 386.978L221.715 552.856H251.38L254.368 385.672L243.919 349.1L157.714 343.875Z" fill="#2F2E41"/>
<path d="M213.955 356.153C182.69 356.155 153.91 342.005 153.522 341.81L153.199 341.649L150.575 278.683C149.815 276.458 134.833 232.552 132.295 218.596C129.725 204.458 166.984 192.049 171.508 190.598L172.535 179.224L214.289 174.725L219.581 189.278L234.56 194.895C236.259 195.532 237.664 196.77 238.51 198.375C239.357 199.979 239.585 201.838 239.152 203.599L230.827 237.456L251.16 349.468L246.783 349.658C236.29 354.397 224.965 356.152 213.955 356.153Z" fill="#3F3D56"/>
<path d="M209.466 163.837C224.035 155.873 229.389 137.607 221.425 123.038C213.461 108.47 195.195 103.116 180.626 111.08C166.058 119.043 160.704 137.31 168.667 151.878C176.631 166.447 194.898 171.801 209.466 163.837Z" fill="#A0616A"/>
<path d="M170.697 166.561C176.427 172.664 187.067 169.388 187.813 161.051C187.872 160.403 187.868 159.752 187.801 159.105C187.415 155.412 185.282 152.059 185.793 148.16C185.908 147.189 186.27 146.265 186.843 145.473C191.409 139.359 202.126 148.207 206.434 142.673C209.076 139.279 205.971 133.936 207.998 130.143C210.674 125.137 218.6 127.607 223.57 124.865C229.101 121.815 228.77 113.33 225.13 108.169C220.69 101.875 212.906 98.5168 205.219 98.0328C197.532 97.5488 189.898 99.6267 182.722 102.423C174.568 105.601 166.482 109.993 161.464 117.162C155.362 125.882 154.775 137.604 157.827 147.799C159.683 154.001 166.019 161.578 170.697 166.561Z" fill="#2F2E41"/>
<path d="M382.162 584.963H1.16162C0.896405 584.963 0.642035 584.857 0.454498 584.67C0.266962 584.482 0.161621 584.228 0.161621 583.963C0.161621 583.697 0.266962 583.443 0.454498 583.255C0.642035 583.068 0.896405 582.963 1.16162 582.963H382.162C382.427 582.963 382.681 583.068 382.869 583.255C383.056 583.443 383.162 583.697 383.162 583.963C383.162 584.228 383.056 584.482 382.869 584.67C382.681 584.857 382.427 584.963 382.162 584.963Z" fill="#CACACA"/>
<path d="M337.171 137.335C336.287 137.337 335.436 137.002 334.789 136.4L318.632 121.393C317.953 120.761 317.553 119.885 317.519 118.958C317.485 118.031 317.821 117.128 318.452 116.449C319.083 115.769 319.959 115.368 320.886 115.333C321.813 115.298 322.715 115.633 323.396 116.264L337.081 128.976L364.158 101.899C364.483 101.572 364.869 101.313 365.294 101.135C365.719 100.958 366.175 100.866 366.636 100.865C367.097 100.864 367.553 100.954 367.979 101.13C368.405 101.306 368.792 101.564 369.117 101.89C369.443 102.216 369.701 102.603 369.877 103.029C370.053 103.455 370.143 103.911 370.142 104.372C370.141 104.833 370.049 105.289 369.872 105.714C369.694 106.139 369.434 106.525 369.107 106.85L339.646 136.311C339.321 136.636 338.935 136.894 338.511 137.07C338.086 137.246 337.63 137.336 337.171 137.335Z" fill="white"/>
</g>
<defs>
<clipPath id="clip0_5294_379006">
<rect width="680.839" height="584.232" fill="white" transform="translate(0.161621 0.883972)"/>
</clipPath>
</defs>
</svg>
