<svg width="16" height="15" viewBox="0 0 16 15" fill="none" xmlns="http://www.w3.org/2000/svg">
<path d="M10.6666 10.1666L7.99997 7.49995M7.99997 7.49995L5.33331 10.1666M7.99997 7.49995V13.4999M13.5933 11.7599C14.2435 11.4055 14.7572 10.8445 15.0532 10.1657C15.3493 9.48686 15.4108 8.72877 15.2281 8.01107C15.0454 7.29338 14.629 6.65696 14.0444 6.20225C13.4599 5.74754 12.7406 5.50044 12 5.49995H11.16C10.9582 4.71944 10.5821 3.99484 10.0599 3.38061C9.5378 2.76638 8.8832 2.27852 8.14537 1.95369C7.40754 1.62886 6.60567 1.47552 5.80005 1.5052C4.99443 1.53489 4.20602 1.74682 3.49409 2.12506C2.78216 2.5033 2.16525 3.03802 1.68972 3.689C1.2142 4.33999 0.892434 5.09031 0.748627 5.88354C0.60482 6.67678 0.64271 7.4923 0.859449 8.26879C1.07619 9.04528 1.46613 9.76252 1.99997 10.3666" stroke="#70BAD8" stroke-width="1.33333" stroke-linecap="round" stroke-linejoin="round"/>
</svg>
