<svg width="20" height="17" viewBox="0 0 20 17" fill="none" xmlns="http://www.w3.org/2000/svg">
<path d="M13.3335 11.8334L10.0002 8.50003M10.0002 8.50003L6.66688 11.8334M10.0002 8.50003V16M16.9919 13.825C17.8047 13.3819 18.4467 12.6808 18.8168 11.8322C19.1868 10.9837 19.2637 10.0361 19.0354 9.13893C18.807 8.24182 18.2865 7.44629 17.5558 6.8779C16.8251 6.30951 15.9259 6.00064 15.0002 6.00003H13.9502C13.698 5.02439 13.2278 4.11864 12.5752 3.35085C11.9225 2.58307 11.1043 1.97324 10.182 1.5672C9.25967 1.16116 8.25734 0.969493 7.25031 1.0066C6.24328 1.0437 5.25777 1.30861 4.36786 1.78142C3.47795 2.25422 2.7068 2.92261 2.1124 3.73635C1.51799 4.55008 1.11579 5.48797 0.936028 6.47952C0.756269 7.47107 0.803632 8.49047 1.07456 9.46108C1.34548 10.4317 1.83291 11.3282 2.50021 12.0834" stroke="#50656F" stroke-width="1.66667" stroke-linecap="round" stroke-linejoin="round"/>
</svg>

